<svg xmlns="http://www.w3.org/2000/svg" xmlns:xlink="http://www.w3.org/1999/xlink" viewBox="0 0 512 512" width="512" height="512" preserveAspectRatio="xMidYMid meet" style="width: 100%; height: 100%; transform: translate3d(0px, 0px, 0px); content-visibility: visible;"><defs><clipPath id="__lottie_element_2"><rect width="512" height="512" x="0" y="0"></rect></clipPath></defs><g clip-path="url(#__lottie_element_2)"><g transform="matrix(0.9773104190826416,-0.2118121087551117,0.2118121087551117,0.9773104190826416,281.4673156738281,216.86886596679688)" opacity="1" style="display: block;"><g opacity="1" transform="matrix(1,0,0,1,0,0)"><path fill="rgb(255,255,255)" fill-opacity="1" d=" M-215.5800018310547,-225.64700317382812 C-215.5800018310547,-225.64700317382812 -252.468994140625,-84.6989974975586 -252.468994140625,-84.6989974975586 C-253.9239959716797,-79.1240005493164 -250.5850067138672,-73.4280014038086 -245.02000427246094,-71.97599792480469 C-245.02000427246094,-71.97599792480469 -136.9669952392578,-43.777000427246094 -136.9669952392578,-43.777000427246094 C-131.40199279785156,-42.32500076293945 -125.70500183105469,-45.6619987487793 -124.25,-51.23699951171875 C-124.25,-51.23699951171875 -87.36100006103516,-192.18499755859375 -87.36100006103516,-192.18499755859375 C-85.90899658203125,-197.75 -89.24800109863281,-203.44700622558594 -94.81300354003906,-204.8990020751953 C-94.81300354003906,-204.8990020751953 -202.86599731445312,-233.09800720214844 -202.86599731445312,-233.09800720214844 C-208.43099975585938,-234.5500030517578 -214.1280059814453,-231.21200561523438 -215.5800018310547,-225.64700317382812z"></path><path stroke-linecap="round" stroke-linejoin="round" fill-opacity="0" stroke="rgb(0,0,0)" stroke-opacity="1" stroke-width="2" d=" M-215.5800018310547,-225.64700317382812 C-215.5800018310547,-225.64700317382812 -252.468994140625,-84.6989974975586 -252.468994140625,-84.6989974975586 C-253.9239959716797,-79.1240005493164 -250.5850067138672,-73.4280014038086 -245.02000427246094,-71.97599792480469 C-245.02000427246094,-71.97599792480469 -136.9669952392578,-43.777000427246094 -136.9669952392578,-43.777000427246094 C-131.40199279785156,-42.32500076293945 -125.70500183105469,-45.6619987487793 -124.25,-51.23699951171875 C-124.25,-51.23699951171875 -87.36100006103516,-192.18499755859375 -87.36100006103516,-192.18499755859375 C-85.90899658203125,-197.75 -89.24800109863281,-203.44700622558594 -94.81300354003906,-204.8990020751953 C-94.81300354003906,-204.8990020751953 -202.86599731445312,-233.09800720214844 -202.86599731445312,-233.09800720214844 C-208.43099975585938,-234.5500030517578 -214.1280059814453,-231.21200561523438 -215.5800018310547,-225.64700317382812z"></path></g><g opacity="1" transform="matrix(1,0,0,1,0,0)"><path fill="rgb(112,255,204)" fill-opacity="1" d=" M-211.86000061035156,-173.61599731445312 C-211.86000061035156,-173.61599731445312 -116.22899627685547,-148.65899658203125 -116.22899627685547,-148.65899658203125 C-112.7770004272461,-147.75799560546875 -109.2490005493164,-149.8249969482422 -108.3479995727539,-153.27699279785156 C-108.3479995727539,-153.27699279785156 -99.5739974975586,-186.49899291992188 -99.5739974975586,-186.49899291992188 C-98.6729965209961,-189.9510040283203 -100.73999786376953,-193.47799682617188 -104.19200134277344,-194.37899780273438 C-104.19200134277344,-194.37899780273438 -199.822998046875,-219.33700561523438 -199.822998046875,-219.33700561523438 C-203.27499389648438,-220.23800659179688 -206.802001953125,-218.1699981689453 -207.7030029296875,-214.71800231933594 C-207.7030029296875,-214.71800231933594 -216.47799682617188,-181.4969940185547 -216.47799682617188,-181.4969940185547 C-217.37899780273438,-178.0449981689453 -215.31199645996094,-174.51699829101562 -211.86000061035156,-173.61599731445312z"></path><path stroke-linecap="round" stroke-linejoin="round" fill-opacity="0" stroke="rgb(0,0,0)" stroke-opacity="1" stroke-width="2" d=" M-211.86000061035156,-173.61599731445312 C-211.86000061035156,-173.61599731445312 -116.22899627685547,-148.65899658203125 -116.22899627685547,-148.65899658203125 C-112.7770004272461,-147.75799560546875 -109.2490005493164,-149.8249969482422 -108.3479995727539,-153.27699279785156 C-108.3479995727539,-153.27699279785156 -99.5739974975586,-186.49899291992188 -99.5739974975586,-186.49899291992188 C-98.6729965209961,-189.9510040283203 -100.73999786376953,-193.47799682617188 -104.19200134277344,-194.37899780273438 C-104.19200134277344,-194.37899780273438 -199.822998046875,-219.33700561523438 -199.822998046875,-219.33700561523438 C-203.27499389648438,-220.23800659179688 -206.802001953125,-218.1699981689453 -207.7030029296875,-214.71800231933594 C-207.7030029296875,-214.71800231933594 -216.47799682617188,-181.4969940185547 -216.47799682617188,-181.4969940185547 C-217.37899780273438,-178.0449981689453 -215.31199645996094,-174.51699829101562 -211.86000061035156,-173.61599731445312z"></path></g><g opacity="1" transform="matrix(1,0,0,1,0,0)"><path fill="rgb(112,255,204)" fill-opacity="1" d=" M-206.60000610351562,-153.41700744628906 C-206.60000610351562,-153.41700744628906 -216.406005859375,-155.9759979248047 -216.406005859375,-155.9759979248047"></path><path stroke-linecap="round" stroke-linejoin="round" fill-opacity="0" stroke="rgb(0,0,0)" stroke-opacity="1" stroke-width="2" d=" M-206.60000610351562,-153.41700744628906 C-206.60000610351562,-153.41700744628906 -216.406005859375,-155.9759979248047 -216.406005859375,-155.9759979248047"></path></g><g opacity="1" transform="matrix(1,0,0,1,0,0)"><path fill="rgb(112,255,204)" fill-opacity="1" d=" M-183.20700073242188,-147.31100463867188 C-183.20700073242188,-147.31100463867188 -200.57699584960938,-151.84500122070312 -200.57699584960938,-151.84500122070312"></path><path stroke-linecap="round" stroke-linejoin="round" fill-opacity="0" stroke="rgb(0,0,0)" stroke-opacity="1" stroke-width="2" d=" M-183.20700073242188,-147.31100463867188 C-183.20700073242188,-147.31100463867188 -200.57699584960938,-151.84500122070312 -200.57699584960938,-151.84500122070312"></path></g><g opacity="1" transform="matrix(1,0,0,1,0,0)"><path fill="rgb(112,255,204)" fill-opacity="1" d=" M-140.6929931640625,-136.21600341796875 C-140.6929931640625,-136.21600341796875 -172.49099731445312,-144.51499938964844 -172.49099731445312,-144.51499938964844"></path><path stroke-linecap="round" stroke-linejoin="round" fill-opacity="0" stroke="rgb(0,0,0)" stroke-opacity="1" stroke-width="2" d=" M-140.6929931640625,-136.21600341796875 C-140.6929931640625,-136.21600341796875 -172.49099731445312,-144.51499938964844 -172.49099731445312,-144.51499938964844"></path></g><g opacity="1" transform="matrix(1,0,0,1,0,0)"><path fill="rgb(112,255,204)" fill-opacity="1" d=" M-120.88300323486328,-131.04600524902344 C-120.88300323486328,-131.04600524902344 -133.69500732421875,-134.38999938964844 -133.69500732421875,-134.38999938964844"></path><path stroke-linecap="round" stroke-linejoin="round" fill-opacity="0" stroke="rgb(0,0,0)" stroke-opacity="1" stroke-width="2" d=" M-120.88300323486328,-131.04600524902344 C-120.88300323486328,-131.04600524902344 -133.69500732421875,-134.38999938964844 -133.69500732421875,-134.38999938964844"></path></g><g opacity="1" transform="matrix(1,0,0,1,0,0)"><path fill="rgb(112,255,204)" fill-opacity="1" d=" M-157.156005859375,-129.96400451660156 C-157.156005859375,-129.96400451660156 -218.98300170898438,-146.10000610351562 -218.98300170898438,-146.10000610351562"></path><path stroke-linecap="round" stroke-linejoin="round" fill-opacity="0" stroke="rgb(0,0,0)" stroke-opacity="1" stroke-width="2" d=" M-157.156005859375,-129.96400451660156 C-157.156005859375,-129.96400451660156 -218.98300170898438,-146.10000610351562 -218.98300170898438,-146.10000610351562"></path></g><g opacity="1" transform="matrix(1,0,0,1,0,0)"><path fill="rgb(112,255,204)" fill-opacity="1" d=" M-123.45999908447266,-121.1709976196289 C-123.45999908447266,-121.1709976196289 -149.08299255371094,-127.85800170898438 -149.08299255371094,-127.85800170898438"></path><path stroke-linecap="round" stroke-linejoin="round" fill-opacity="0" stroke="rgb(0,0,0)" stroke-opacity="1" stroke-width="2" d=" M-123.45999908447266,-121.1709976196289 C-123.45999908447266,-121.1709976196289 -149.08299255371094,-127.85800170898438 -149.08299255371094,-127.85800170898438"></path></g><g opacity="1" transform="matrix(1,0,0,1,0,0)"><path fill="rgb(112,255,204)" fill-opacity="1" d=" M-204.2779998779297,-131.71400451660156 C-204.2779998779297,-131.71400451660156 -221.55999755859375,-136.2239990234375 -221.55999755859375,-136.2239990234375"></path><path stroke-linecap="round" stroke-linejoin="round" fill-opacity="0" stroke="rgb(0,0,0)" stroke-opacity="1" stroke-width="2" d=" M-204.2779998779297,-131.71400451660156 C-204.2779998779297,-131.71400451660156 -221.55999755859375,-136.2239990234375 -221.55999755859375,-136.2239990234375"></path></g><g opacity="1" transform="matrix(1,0,0,1,0,0)"><path fill="rgb(112,255,204)" fill-opacity="1" d=" M-173.16299438476562,-123.59400177001953 C-173.16299438476562,-123.59400177001953 -194.03500366210938,-129.04100036621094 -194.03500366210938,-129.04100036621094"></path><path stroke-linecap="round" stroke-linejoin="round" fill-opacity="0" stroke="rgb(0,0,0)" stroke-opacity="1" stroke-width="2" d=" M-173.16299438476562,-123.59400177001953 C-173.16299438476562,-123.59400177001953 -194.03500366210938,-129.04100036621094 -194.03500366210938,-129.04100036621094"></path></g><g opacity="1" transform="matrix(1,0,0,1,0,0)"><path fill="rgb(112,255,204)" fill-opacity="1" d=" M-126.03800201416016,-111.29499816894531 C-126.03800201416016,-111.29499816894531 -167.4199981689453,-122.09500122070312 -167.4199981689453,-122.09500122070312"></path><path stroke-linecap="round" stroke-linejoin="round" fill-opacity="0" stroke="rgb(0,0,0)" stroke-opacity="1" stroke-width="2" d=" M-126.03800201416016,-111.29499816894531 C-126.03800201416016,-111.29499816894531 -167.4199981689453,-122.09500122070312 -167.4199981689453,-122.09500122070312"></path></g><g opacity="1" transform="matrix(1,0,0,1,0,0)"><path fill="rgb(112,255,204)" fill-opacity="1" d=" M-162.30999755859375,-110.21299743652344 C-162.30999755859375,-110.21299743652344 -224.13800048828125,-126.3489990234375 -224.13800048828125,-126.3489990234375"></path><path stroke-linecap="round" stroke-linejoin="round" fill-opacity="0" stroke="rgb(0,0,0)" stroke-opacity="1" stroke-width="2" d=" M-162.30999755859375,-110.21299743652344 C-162.30999755859375,-110.21299743652344 -224.13800048828125,-126.3489990234375 -224.13800048828125,-126.3489990234375"></path></g><g opacity="1" transform="matrix(1,0,0,1,0,0)"><path fill="rgb(112,255,204)" fill-opacity="1" d=" M-128.61500549316406,-101.41999816894531 C-128.61500549316406,-101.41999816894531 -145.6060028076172,-105.85399627685547 -145.6060028076172,-105.85399627685547"></path><path stroke-linecap="round" stroke-linejoin="round" fill-opacity="0" stroke="rgb(0,0,0)" stroke-opacity="1" stroke-width="2" d=" M-128.61500549316406,-101.41999816894531 C-128.61500549316406,-101.41999816894531 -145.6060028076172,-105.85399627685547 -145.6060028076172,-105.85399627685547"></path></g><g opacity="1" transform="matrix(1,0,0,1,0,0)"><path fill="rgb(112,255,204)" fill-opacity="1" d=" M-196.03799438476562,-108.46700286865234 C-196.03799438476562,-108.46700286865234 -226.71499633789062,-116.4729995727539 -226.71499633789062,-116.4729995727539"></path><path stroke-linecap="round" stroke-linejoin="round" fill-opacity="0" stroke="rgb(0,0,0)" stroke-opacity="1" stroke-width="2" d=" M-196.03799438476562,-108.46700286865234 C-196.03799438476562,-108.46700286865234 -226.71499633789062,-116.4729995727539 -226.71499633789062,-116.4729995727539"></path></g><g opacity="1" transform="matrix(1,0,0,1,0,0)"><path fill="rgb(112,255,204)" fill-opacity="1" d=" M-131.19200134277344,-91.54399871826172 C-131.19200134277344,-91.54399871826172 -176.23399353027344,-103.29900360107422 -176.23399353027344,-103.29900360107422"></path><path stroke-linecap="round" stroke-linejoin="round" fill-opacity="0" stroke="rgb(0,0,0)" stroke-opacity="1" stroke-width="2" d=" M-131.19200134277344,-91.54399871826172 C-131.19200134277344,-91.54399871826172 -176.23399353027344,-103.29900360107422 -176.23399353027344,-103.29900360107422"></path></g><g opacity="1" transform="matrix(1,0,0,1,0,0)"><path fill="rgb(253,196,35)" fill-opacity="1" d=" M-238.61199951171875,-95.82599639892578 C-240.73699951171875,-87.68299865722656 -235.85899353027344,-79.36000061035156 -227.71600341796875,-77.23500061035156 C-219.572998046875,-75.11000061035156 -211.25,-79.98699951171875 -209.125,-88.12999725341797 C-207,-96.27300262451172 -211.8780059814453,-104.59600067138672 -220.02099609375,-106.72100067138672 C-228.16400146484375,-108.84600067138672 -236.48699951171875,-103.96900177001953 -238.61199951171875,-95.82599639892578z"></path><path stroke-linecap="round" stroke-linejoin="round" fill-opacity="0" stroke="rgb(0,0,0)" stroke-opacity="1" stroke-width="2" d=" M-238.61199951171875,-95.82599639892578 C-240.73699951171875,-87.68299865722656 -235.85899353027344,-79.36000061035156 -227.71600341796875,-77.23500061035156 C-219.572998046875,-75.11000061035156 -211.25,-79.98699951171875 -209.125,-88.12999725341797 C-207,-96.27300262451172 -211.8780059814453,-104.59600067138672 -220.02099609375,-106.72100067138672 C-228.16400146484375,-108.84600067138672 -236.48699951171875,-103.96900177001953 -238.61199951171875,-95.82599639892578z"></path></g><g opacity="1" transform="matrix(1,0,0,1,0,0)"><path fill="rgb(255,255,255)" fill-opacity="1" d=" M-229.57699584960938,-93.46800231933594 C-230.39999389648438,-90.31500244140625 -228.51100158691406,-87.09300231933594 -225.35800170898438,-86.2699966430664 C-222.2050018310547,-85.4469985961914 -218.98300170898438,-87.33499908447266 -218.16000366210938,-90.48799896240234 C-217.33700561523438,-93.64099884033203 -219.2259979248047,-96.86299896240234 -222.37899780273438,-97.68599700927734 C-225.53199768066406,-98.50900268554688 -228.75399780273438,-96.62100219726562 -229.57699584960938,-93.46800231933594z"></path><path stroke-linecap="round" stroke-linejoin="round" fill-opacity="0" stroke="rgb(0,0,0)" stroke-opacity="1" stroke-width="2" d=" M-229.57699584960938,-93.46800231933594 C-230.39999389648438,-90.31500244140625 -228.51100158691406,-87.09300231933594 -225.35800170898438,-86.2699966430664 C-222.2050018310547,-85.4469985961914 -218.98300170898438,-87.33499908447266 -218.16000366210938,-90.48799896240234 C-217.33700561523438,-93.64099884033203 -219.2259979248047,-96.86299896240234 -222.37899780273438,-97.68599700927734 C-225.53199768066406,-98.50900268554688 -228.75399780273438,-96.62100219726562 -229.57699584960938,-93.46800231933594z"></path></g></g><g transform="matrix(1,0,0,1,256,256)" opacity="1" style="display: block;"><g opacity="1" transform="matrix(1,0,0,1,0,0)"><path fill="rgb(0,0,0)" fill-opacity="1" d=" M113.7239990234375,-13.343000411987305 C113.7239990234375,-13.343000411987305 37.38399887084961,-9.744999885559082 55.571998596191406,-50.249000549316406 C55.571998596191406,-50.249000549316406 45.85300064086914,-56.38999938964844 46.4379997253418,-67.552001953125 C47.02299880981445,-78.71399688720703 53.10300064086914,-85.80500030517578 53.10300064086914,-85.80500030517578 C53.10300064086914,-85.80500030517578 44.48099899291992,-89.64199829101562 45.393001556396484,-100.7030029296875 C46.30500030517578,-111.76399993896484 56.323001861572266,-118.60099792480469 56.323001861572266,-118.60099792480469 C56.323001861572266,-118.60099792480469 50.869998931884766,-138.77699279785156 60.69200134277344,-151.3699951171875 C70.51399993896484,-163.96299743652344 81.91100311279297,-160.0850067138672 81.91100311279297,-160.0850067138672 C81.91100311279297,-160.0850067138672 90.29000091552734,-180.60000610351562 112.81600189208984,-181.0679931640625 C135.3419952392578,-181.53599548339844 146.55299377441406,-168.78700256347656 146.55299377441406,-168.78700256347656 C146.55299377441406,-168.78700256347656 164.72799682617188,-172.9709930419922 176.61700439453125,-168.25999450683594 C188.50599670410156,-163.5489959716797 191.87600708007812,-145.7220001220703 191.87600708007812,-145.7220001220703 C191.87600708007812,-145.7220001220703 207.41400146484375,-146.76600646972656 217.4600067138672,-133.38699340820312 C227.50599670410156,-120.00800323486328 222.5449981689453,-107.21700286865234 222.5449981689453,-107.21700286865234 C222.5449981689453,-107.21700286865234 232.13800048828125,-102.7229995727539 235.48699951171875,-91.14199829101562 C238.83599853515625,-79.56099700927734 227.95199584960938,-71.0999984741211 227.95199584960938,-71.0999984741211 C227.95199584960938,-71.0999984741211 246.82699584960938,-19.718000411987305 206.718994140625,-12.258999824523926 C166.61099243164062,-4.800000190734863 150.00999450683594,-18.98699951171875 150.00999450683594,-18.98699951171875 C150.00999450683594,-18.98699951171875 135.36900329589844,-4.065000057220459 113.7239990234375,-13.343000411987305z"></path><path stroke-linecap="round" stroke-linejoin="round" fill-opacity="0" stroke="rgb(0,0,0)" stroke-opacity="1" stroke-width="2" d=" M113.7239990234375,-13.343000411987305 C113.7239990234375,-13.343000411987305 37.38399887084961,-9.744999885559082 55.571998596191406,-50.249000549316406 C55.571998596191406,-50.249000549316406 45.85300064086914,-56.38999938964844 46.4379997253418,-67.552001953125 C47.02299880981445,-78.71399688720703 53.10300064086914,-85.80500030517578 53.10300064086914,-85.80500030517578 C53.10300064086914,-85.80500030517578 44.48099899291992,-89.64199829101562 45.393001556396484,-100.7030029296875 C46.30500030517578,-111.76399993896484 56.323001861572266,-118.60099792480469 56.323001861572266,-118.60099792480469 C56.323001861572266,-118.60099792480469 50.869998931884766,-138.77699279785156 60.69200134277344,-151.3699951171875 C70.51399993896484,-163.96299743652344 81.91100311279297,-160.0850067138672 81.91100311279297,-160.0850067138672 C81.91100311279297,-160.0850067138672 90.29000091552734,-180.60000610351562 112.81600189208984,-181.0679931640625 C135.3419952392578,-181.53599548339844 146.55299377441406,-168.78700256347656 146.55299377441406,-168.78700256347656 C146.55299377441406,-168.78700256347656 164.72799682617188,-172.9709930419922 176.61700439453125,-168.25999450683594 C188.50599670410156,-163.5489959716797 191.87600708007812,-145.7220001220703 191.87600708007812,-145.7220001220703 C191.87600708007812,-145.7220001220703 207.41400146484375,-146.76600646972656 217.4600067138672,-133.38699340820312 C227.50599670410156,-120.00800323486328 222.5449981689453,-107.21700286865234 222.5449981689453,-107.21700286865234 C222.5449981689453,-107.21700286865234 232.13800048828125,-102.7229995727539 235.48699951171875,-91.14199829101562 C238.83599853515625,-79.56099700927734 227.95199584960938,-71.0999984741211 227.95199584960938,-71.0999984741211 C227.95199584960938,-71.0999984741211 246.82699584960938,-19.718000411987305 206.718994140625,-12.258999824523926 C166.61099243164062,-4.800000190734863 150.00999450683594,-18.98699951171875 150.00999450683594,-18.98699951171875 C150.00999450683594,-18.98699951171875 135.36900329589844,-4.065000057220459 113.7239990234375,-13.343000411987305z"></path></g><g opacity="1" transform="matrix(1,0,0,1,0,0)"><path stroke-linecap="butt" stroke-linejoin="miter" fill-opacity="0" stroke-miterlimit="10" stroke="rgb(255,255,255)" stroke-opacity="1" stroke-width="2" d=" M71.07599639892578,-141.28199768066406 C66.51899719238281,-139.13999938964844 63.638999938964844,-133.89199829101562 64.27999877929688,-128.8979949951172"></path></g><g opacity="1" transform="matrix(1,0,0,1,0,0)"><path stroke-linecap="butt" stroke-linejoin="miter" fill-opacity="0" stroke-miterlimit="10" stroke="rgb(255,255,255)" stroke-opacity="1" stroke-width="2" d=" M60.90399932861328,-77.95099639892578 C58.54399871826172,-75.19000244140625 57.441001892089844,-71.3949966430664 57.95199966430664,-67.79900360107422 C58.4630012512207,-64.2030029296875 60.58000183105469,-60.8650016784668 63.61600112915039,-58.87099838256836"></path></g><g opacity="1" transform="matrix(1,0,0,1,0,0)"><path stroke-linecap="butt" stroke-linejoin="miter" fill-opacity="0" stroke-miterlimit="10" stroke="rgb(255,255,255)" stroke-opacity="1" stroke-width="2" d=" M222.99400329589844,-60.86899948120117 C225.3040008544922,-55.10200119018555 227.26800537109375,-48.95000076293945 226.57000732421875,-42.777000427246094 C225.8719940185547,-36.604000091552734 221.86599731445312,-30.426000595092773 215.8260040283203,-28.972000122070312"></path></g><g opacity="1" transform="matrix(1,0,0,1,0,0)"><path stroke-linecap="butt" stroke-linejoin="miter" fill-opacity="0" stroke-miterlimit="10" stroke="rgb(255,255,255)" stroke-opacity="1" stroke-width="2" d=" M194.19000244140625,-115.57599639892578 C195.50399780273438,-113.00299835205078 196.8280029296875,-110.40599822998047 197.5749969482422,-107.61499786376953 C198.32200622558594,-104.8239974975586 198.45899963378906,-101.78700256347656 197.41299438476562,-99.09400177001953 C195.70799255371094,-94.70099639892578 190.68699645996094,-91.86900329589844 186.04600524902344,-92.68299865722656"></path></g><g opacity="1" transform="matrix(1,0,0,1,0,0)"><path stroke-linecap="butt" stroke-linejoin="miter" fill-opacity="0" stroke-miterlimit="10" stroke="rgb(255,255,255)" stroke-opacity="1" stroke-width="2" d=" M155.17599487304688,-162.16200256347656 C158.73599243164062,-162.61099243164062 162.44500732421875,-161.7740020751953 165.4669952392578,-159.83999633789062 C168.48899841308594,-157.906005859375 170.802001953125,-154.88900756835938 171.88600158691406,-151.46800231933594"></path></g><g opacity="1" transform="matrix(1,0,0,1,0,0)"><path stroke-linecap="butt" stroke-linejoin="miter" fill-opacity="0" stroke-miterlimit="10" stroke="rgb(255,255,255)" stroke-opacity="1" stroke-width="2" d=" M206.33599853515625,-128.7550048828125 C210.5590057373047,-126.01399993896484 213.3159942626953,-121.13800048828125 213.48500061035156,-116.10600280761719"></path></g></g><g transform="matrix(1,0.00015707963029854,-0.00015707963029854,1,255.99391174316406,255.98731994628906)" opacity="1" style="display: block;"><g opacity="1" transform="matrix(1,0,0,1,0,0)"><path fill="rgb(255,255,255)" fill-opacity="1" d=" M-50.819000244140625,-28.315000534057617 C-50.819000244140625,-28.315000534057617 -67.47599792480469,1.1169999837875366 -67.47599792480469,1.1169999837875366 C-67.47599792480469,1.1169999837875366 -76.94499969482422,-4.114999771118164 -87.70500183105469,-8.883999824523926 C-92.2979965209961,-10.918999671936035 -104.08599853515625,-18.631999969482422 -108.7969970703125,-24.0939998626709 C-113.5260009765625,-29.555999755859375 -108.30899810791016,-30.981000900268555 -108.30899810791016,-30.981000900268555 C-113.12200164794922,-37.37099838256836 -105.27899932861328,-38.72100067138672 -105.27899932861328,-38.72100067138672 C-107.7699966430664,-40.597999572753906 -108.90299987792969,-44.770999908447266 -105.34300231933594,-46.08700180053711 C-101.83599853515625,-47.3849983215332 -88.63899993896484,-40.880001068115234 -88.22599792480469,-40.67499923706055 C-88.5979995727539,-41.00699996948242 -102.1709976196289,-51.32600021362305 -97.18900299072266,-55.39899826049805 C-91.22100067138672,-60.277000427246094 -69.78299713134766,-39.915000915527344 -69.78299713134766,-39.915000915527344"></path><path stroke-linecap="round" stroke-linejoin="round" fill-opacity="0" stroke="rgb(0,0,0)" stroke-opacity="1" stroke-width="2" d=" M-50.819000244140625,-28.315000534057617 C-50.819000244140625,-28.315000534057617 -67.47599792480469,1.1169999837875366 -67.47599792480469,1.1169999837875366 C-67.47599792480469,1.1169999837875366 -76.94499969482422,-4.114999771118164 -87.70500183105469,-8.883999824523926 C-92.2979965209961,-10.918999671936035 -104.08599853515625,-18.631999969482422 -108.7969970703125,-24.0939998626709 C-113.5260009765625,-29.555999755859375 -108.30899810791016,-30.981000900268555 -108.30899810791016,-30.981000900268555 C-113.12200164794922,-37.37099838256836 -105.27899932861328,-38.72100067138672 -105.27899932861328,-38.72100067138672 C-107.7699966430664,-40.597999572753906 -108.90299987792969,-44.770999908447266 -105.34300231933594,-46.08700180053711 C-101.83599853515625,-47.3849983215332 -88.63899993896484,-40.880001068115234 -88.22599792480469,-40.67499923706055 C-88.5979995727539,-41.00699996948242 -102.1709976196289,-51.32600021362305 -97.18900299072266,-55.39899826049805 C-91.22100067138672,-60.277000427246094 -69.78299713134766,-39.915000915527344 -69.78299713134766,-39.915000915527344"></path></g><g opacity="1" transform="matrix(1,0,0,1,0,0)"><path stroke-linecap="round" stroke-linejoin="round" fill-opacity="0" stroke="rgb(0,0,0)" stroke-opacity="1" stroke-width="2" d=" M-105.2770004272461,-38.722999572753906 C-105.2770004272461,-38.722999572753906 -92.5009994506836,-32.3129997253418 -92.5009994506836,-32.3129997253418"></path></g><g opacity="1" transform="matrix(1,0,0,1,0,0)"><path stroke-linecap="round" stroke-linejoin="round" fill-opacity="0" stroke="rgb(0,0,0)" stroke-opacity="1" stroke-width="2" d=" M-108.30799865722656,-30.982999801635742 C-108.30799865722656,-30.982999801635742 -95.2959976196289,-24.878000259399414 -95.2959976196289,-24.878000259399414"></path></g><g opacity="1" transform="matrix(1,0,0,1,0,0)"><path fill="rgb(253,196,35)" fill-opacity="1" d=" M-65.33599853515625,5.861000061035156 C-65.33599853515625,5.861000061035156 -50.96200180053711,18.666000366210938 -50.96200180053711,18.666000366210938 C-50.96200180053711,18.666000366210938 -23.59600067138672,-15.038999557495117 -23.59600067138672,-15.038999557495117 C-23.59600067138672,-15.038999557495117 -42.125,-30.961000442504883 -42.125,-30.961000442504883 C-55.79199981689453,-39.7760009765625 -79.00299835205078,-2.9539999961853027 -65.33599853515625,5.861000061035156z"></path><path stroke-linecap="round" stroke-linejoin="round" fill-opacity="0" stroke="rgb(0,0,0)" stroke-opacity="1" stroke-width="2" d=" M-65.33599853515625,5.861000061035156 C-65.33599853515625,5.861000061035156 -50.96200180053711,18.666000366210938 -50.96200180053711,18.666000366210938 C-50.96200180053711,18.666000366210938 -23.59600067138672,-15.038999557495117 -23.59600067138672,-15.038999557495117 C-23.59600067138672,-15.038999557495117 -42.125,-30.961000442504883 -42.125,-30.961000442504883 C-55.79199981689453,-39.7760009765625 -79.00299835205078,-2.9539999961853027 -65.33599853515625,5.861000061035156z"></path></g><g opacity="1" transform="matrix(1,0,0,1,0,0)"><path fill="rgb(255,255,255)" fill-opacity="1" d=" M80.95700073242188,-37.7859992980957 C80.95700073242188,-37.7859992980957 66.4739990234375,-33.492000579833984 52.52000045776367,-22.013999938964844 C38.566001892089844,-10.53600025177002 14.213000297546387,14.574000358581543 14.213000297546387,14.574000358581543 C14.213000297546387,14.574000358581543 -30.976999282836914,-27.930999755859375 -30.976999282836914,-27.930999755859375 C-42.792999267578125,-31.215999603271484 -69.16300201416016,6.564000129699707 -60.0099983215332,16.020999908447266 C-60.0099983215332,16.020999908447266 -12.736000061035156,65.34200286865234 15.152999877929688,68.86799621582031 C52.14400100708008,73.54499816894531 90.33000183105469,-0.7829999923706055 90.33000183105469,-0.7829999923706055"></path><path stroke-linecap="round" stroke-linejoin="round" fill-opacity="0" stroke="rgb(0,0,0)" stroke-opacity="1" stroke-width="2" d=" M80.95700073242188,-37.7859992980957 C80.95700073242188,-37.7859992980957 66.4739990234375,-33.492000579833984 52.52000045776367,-22.013999938964844 C38.566001892089844,-10.53600025177002 14.213000297546387,14.574000358581543 14.213000297546387,14.574000358581543 C14.213000297546387,14.574000358581543 -30.976999282836914,-27.930999755859375 -30.976999282836914,-27.930999755859375 C-42.792999267578125,-31.215999603271484 -69.16300201416016,6.564000129699707 -60.0099983215332,16.020999908447266 C-60.0099983215332,16.020999908447266 -12.736000061035156,65.34200286865234 15.152999877929688,68.86799621582031 C52.14400100708008,73.54499816894531 90.33000183105469,-0.7829999923706055 90.33000183105469,-0.7829999923706055"></path></g><g opacity="1" transform="matrix(1,0,0,1,0,0)"><path fill="rgb(255,255,255)" fill-opacity="1" d=" M-98.92500305175781,-98.63300323486328 C-98.92500305175781,-98.63300323486328 -94.13999938964844,24.514999389648438 -94.13999938964844,24.514999389648438 C-94.13999938964844,24.514999389648438 -73.15799713134766,24.514999389648438 -73.15799713134766,24.514999389648438 C-73.15799713134766,24.514999389648438 -68.37300109863281,-98.63300323486328 -68.37300109863281,-98.63300323486328 C-68.03600311279297,-107.302001953125 -74.9729995727539,-114.51399993896484 -83.64900207519531,-114.51399993896484 C-83.64900207519531,-114.51399993896484 -83.64900207519531,-114.51399993896484 -83.64900207519531,-114.51399993896484 C-92.32499694824219,-114.51399993896484 -99.26200103759766,-107.302001953125 -98.92500305175781,-98.63300323486328z"></path><path stroke-linecap="round" stroke-linejoin="round" fill-opacity="0" stroke="rgb(0,0,0)" stroke-opacity="1" stroke-width="2" d=" M-98.92500305175781,-98.63300323486328 C-98.92500305175781,-98.63300323486328 -94.13999938964844,24.514999389648438 -94.13999938964844,24.514999389648438 C-94.13999938964844,24.514999389648438 -73.15799713134766,24.514999389648438 -73.15799713134766,24.514999389648438 C-73.15799713134766,24.514999389648438 -68.37300109863281,-98.63300323486328 -68.37300109863281,-98.63300323486328 C-68.03600311279297,-107.302001953125 -74.9729995727539,-114.51399993896484 -83.64900207519531,-114.51399993896484 C-83.64900207519531,-114.51399993896484 -83.64900207519531,-114.51399993896484 -83.64900207519531,-114.51399993896484 C-92.32499694824219,-114.51399993896484 -99.26200103759766,-107.302001953125 -98.92500305175781,-98.63300323486328z"></path></g><g opacity="1" transform="matrix(1,0,0,1,0,0)"><path fill="rgb(255,255,255)" fill-opacity="1" d=" M-69.78299713134766,-39.915000915527344 C-69.78299713134766,-39.915000915527344 -76.3239974975586,-54.25199890136719 -68.2969970703125,-54.426998138427734 C-61.20899963378906,-54.58100128173828 -53.03300094604492,-30.982999801635742 -53.03300094604492,-30.982999801635742"></path><path stroke-linecap="round" stroke-linejoin="round" fill-opacity="0" stroke="rgb(0,0,0)" stroke-opacity="1" stroke-width="2" d=" M-69.78299713134766,-39.915000915527344 C-69.78299713134766,-39.915000915527344 -76.3239974975586,-54.25199890136719 -68.2969970703125,-54.426998138427734 C-61.20899963378906,-54.58100128173828 -53.03300094604492,-30.982999801635742 -53.03300094604492,-30.982999801635742"></path></g></g><g transform="matrix(0.9987123608589172,0.05073120445013046,-0.05073120445013046,0.9987123608589172,257.53515625,260.4458312988281)" opacity="1" style="display: block;"><g opacity="1" transform="matrix(1,0,0,1,0,0)"><path fill="rgb(190,145,250)" fill-opacity="1" d=" M-41.99700164794922,148.43899536132812 C-40.689998626708984,174.01699829101562 -19.53700065612793,194.35499572753906 6.366000175476074,194.35499572753906 C32.26900100708008,194.35499572753906 53.42100143432617,174.01699829101562 54.72800064086914,148.43899536132812 C54.72800064086914,148.43899536132812 -41.99700164794922,148.43899536132812 -41.99700164794922,148.43899536132812z"></path></g><g opacity="1" transform="matrix(1,0,0,1,0,0)"><path fill="rgb(190,145,250)" fill-opacity="1" d=" M-214.76800537109375,148.43899536132812 C-213.46099853515625,174.01699829101562 -192.30799865722656,194.35499572753906 -166.40499877929688,194.35499572753906 C-140.5019989013672,194.35499572753906 -119.3499984741211,174.01699829101562 -118.04299926757812,148.43899536132812 C-118.04299926757812,148.43899536132812 -214.76800537109375,148.43899536132812 -214.76800537109375,148.43899536132812z"></path></g><g opacity="1" transform="matrix(1,0,0,1,0,0)"><path fill="rgb(255,255,255)" fill-opacity="1" d=" M9.906999588012695,44.94499969482422 C9.906999588012695,44.94499969482422 -83.6449966430664,35.33700180053711 -83.6449966430664,35.33700180053711 C-83.6449966430664,35.33700180053711 -177.19700622558594,44.94499969482422 -177.19700622558594,44.94499969482422 C-179.48899841308594,45.14799880981445 -180.1060028076172,41.80699920654297 -177.81399536132812,41.224998474121094 C-177.81399536132812,41.224998474121094 -87.68199920654297,20.18400001525879 -87.68199920654297,20.18400001525879 C-87.68199920654297,20.18400001525879 -84.95899963378906,19.548999786376953 -84.95899963378906,19.548999786376953 C-84.51799774169922,19.44300079345703 -84.0770034790039,19.381999969482422 -83.6449966430664,19.354999542236328 C-83.21299743652344,19.381999969482422 -82.77300262451172,19.44300079345703 -82.33200073242188,19.548999786376953 C-82.33200073242188,19.548999786376953 -79.60800170898438,20.18400001525879 -79.60800170898438,20.18400001525879 C-79.60800170898438,20.18400001525879 10.52400016784668,41.224998474121094 10.52400016784668,41.224998474121094 C12.762999534606934,41.779998779296875 12.26099967956543,45.14799880981445 9.906999588012695,44.94499969482422z"></path><path stroke-linecap="round" stroke-linejoin="round" fill-opacity="0" stroke="rgb(0,0,0)" stroke-opacity="1" stroke-width="2" d=" M9.906999588012695,44.94499969482422 C9.906999588012695,44.94499969482422 -83.6449966430664,35.33700180053711 -83.6449966430664,35.33700180053711 C-83.6449966430664,35.33700180053711 -177.19700622558594,44.94499969482422 -177.19700622558594,44.94499969482422 C-179.48899841308594,45.14799880981445 -180.1060028076172,41.80699920654297 -177.81399536132812,41.224998474121094 C-177.81399536132812,41.224998474121094 -87.68199920654297,20.18400001525879 -87.68199920654297,20.18400001525879 C-87.68199920654297,20.18400001525879 -84.95899963378906,19.548999786376953 -84.95899963378906,19.548999786376953 C-84.51799774169922,19.44300079345703 -84.0770034790039,19.381999969482422 -83.6449966430664,19.354999542236328 C-83.21299743652344,19.381999969482422 -82.77300262451172,19.44300079345703 -82.33200073242188,19.548999786376953 C-82.33200073242188,19.548999786376953 -79.60800170898438,20.18400001525879 -79.60800170898438,20.18400001525879 C-79.60800170898438,20.18400001525879 10.52400016784668,41.224998474121094 10.52400016784668,41.224998474121094 C12.762999534606934,41.779998779296875 12.26099967956543,45.14799880981445 9.906999588012695,44.94499969482422z"></path></g><g opacity="1" transform="matrix(1,0,0,1,0,0)"><path fill="rgb(0,0,0)" fill-opacity="1" d=" M-65.22799682617188,33.55400085449219 C-65.22799682617188,44.0359992980957 -73.72599792480469,52.534000396728516 -84.20800018310547,52.534000396728516 C-94.69000244140625,52.534000396728516 -103.18800354003906,44.0359992980957 -103.18800354003906,33.55400085449219 C-103.18800354003906,23.07200050354004 -94.69000244140625,14.574000358581543 -84.20800018310547,14.574000358581543 C-73.72599792480469,14.574000358581543 -65.22799682617188,23.07200050354004 -65.22799682617188,33.55400085449219z"></path><path stroke-linecap="round" stroke-linejoin="round" fill-opacity="0" stroke="rgb(0,0,0)" stroke-opacity="1" stroke-width="2" d=" M-65.22799682617188,33.55400085449219 C-65.22799682617188,44.0359992980957 -73.72599792480469,52.534000396728516 -84.20800018310547,52.534000396728516 C-94.69000244140625,52.534000396728516 -103.18800354003906,44.0359992980957 -103.18800354003906,33.55400085449219 C-103.18800354003906,23.07200050354004 -94.69000244140625,14.574000358581543 -84.20800018310547,14.574000358581543 C-73.72599792480469,14.574000358581543 -65.22799682617188,23.07200050354004 -65.22799682617188,33.55400085449219z"></path></g><g opacity="1" transform="matrix(1,0,0,1,0,0)"><path fill="rgb(255,255,255)" fill-opacity="1" d=" M-76.18499755859375,33.55400085449219 C-76.18499755859375,37.98500061035156 -79.7770004272461,41.57699966430664 -84.20800018310547,41.57699966430664 C-88.63899993896484,41.57699966430664 -92.2300033569336,37.98500061035156 -92.2300033569336,33.55400085449219 C-92.2300033569336,29.12299919128418 -88.63899993896484,25.531999588012695 -84.20800018310547,25.531999588012695 C-79.7770004272461,25.531999588012695 -76.18499755859375,29.12299919128418 -76.18499755859375,33.55400085449219z"></path><path stroke-linecap="round" stroke-linejoin="round" fill-opacity="0" stroke="rgb(0,0,0)" stroke-opacity="1" stroke-width="2" d=" M-76.18499755859375,33.55400085449219 C-76.18499755859375,37.98500061035156 -79.7770004272461,41.57699966430664 -84.20800018310547,41.57699966430664 C-88.63899993896484,41.57699966430664 -92.2300033569336,37.98500061035156 -92.2300033569336,33.55400085449219 C-92.2300033569336,29.12299919128418 -88.63899993896484,25.531999588012695 -84.20800018310547,25.531999588012695 C-79.7770004272461,25.531999588012695 -76.18499755859375,29.12299919128418 -76.18499755859375,33.55400085449219z"></path></g><g opacity="1" transform="matrix(1,0,0,1,0,0)"><path fill="rgb(0,0,0)" fill-opacity="1" d=" M15.152999877929688,40.74300003051758 C15.152999877929688,48.3390007019043 8.994999885559082,54.49700164794922 1.3990000486373901,54.49700164794922 C-6.197000026702881,54.49700164794922 -12.354999542236328,48.3390007019043 -12.354999542236328,40.74300003051758 C-12.354999542236328,33.14699935913086 -6.197000026702881,26.98900032043457 1.3990000486373901,26.98900032043457 C8.994999885559082,26.98900032043457 15.152999877929688,33.14699935913086 15.152999877929688,40.74300003051758z"></path><path stroke-linecap="round" stroke-linejoin="round" fill-opacity="0" stroke="rgb(0,0,0)" stroke-opacity="1" stroke-width="2" d=" M15.152999877929688,40.74300003051758 C15.152999877929688,48.3390007019043 8.994999885559082,54.49700164794922 1.3990000486373901,54.49700164794922 C-6.197000026702881,54.49700164794922 -12.354999542236328,48.3390007019043 -12.354999542236328,40.74300003051758 C-12.354999542236328,33.14699935913086 -6.197000026702881,26.98900032043457 1.3990000486373901,26.98900032043457 C8.994999885559082,26.98900032043457 15.152999877929688,33.14699935913086 15.152999877929688,40.74300003051758z"></path></g><g opacity="1" transform="matrix(1,0,0,1,0,0)"><path fill="rgb(255,255,255)" fill-opacity="1" d=" M7.718999862670898,40.74300003051758 C7.718999862670898,44.233001708984375 4.888999938964844,47.0620002746582 1.3990000486373901,47.0620002746582 C-2.0910000801086426,47.0620002746582 -4.920000076293945,44.233001708984375 -4.920000076293945,40.74300003051758 C-4.920000076293945,37.25299835205078 -2.0910000801086426,34.42399978637695 1.3990000486373901,34.42399978637695 C4.888999938964844,34.42399978637695 7.718999862670898,37.25299835205078 7.718999862670898,40.74300003051758z"></path><path stroke-linecap="round" stroke-linejoin="round" fill-opacity="0" stroke="rgb(0,0,0)" stroke-opacity="1" stroke-width="2" d=" M7.718999862670898,40.74300003051758 C7.718999862670898,44.233001708984375 4.888999938964844,47.0620002746582 1.3990000486373901,47.0620002746582 C-2.0910000801086426,47.0620002746582 -4.920000076293945,44.233001708984375 -4.920000076293945,40.74300003051758 C-4.920000076293945,37.25299835205078 -2.0910000801086426,34.42399978637695 1.3990000486373901,34.42399978637695 C4.888999938964844,34.42399978637695 7.718999862670898,37.25299835205078 7.718999862670898,40.74300003051758z"></path></g><g opacity="1" transform="matrix(1,0,0,1,0,0)"><path fill="rgb(0,0,0)" fill-opacity="1" d=" M-156.68600463867188,40.74300003051758 C-156.68600463867188,48.3390007019043 -162.843994140625,54.49700164794922 -170.44000244140625,54.49700164794922 C-178.03599548339844,54.49700164794922 -184.19500732421875,48.3390007019043 -184.19500732421875,40.74300003051758 C-184.19500732421875,33.14699935913086 -178.03599548339844,26.98900032043457 -170.44000244140625,26.98900032043457 C-162.843994140625,26.98900032043457 -156.68600463867188,33.14699935913086 -156.68600463867188,40.74300003051758z"></path><path stroke-linecap="round" stroke-linejoin="round" fill-opacity="0" stroke="rgb(0,0,0)" stroke-opacity="1" stroke-width="2" d=" M-156.68600463867188,40.74300003051758 C-156.68600463867188,48.3390007019043 -162.843994140625,54.49700164794922 -170.44000244140625,54.49700164794922 C-178.03599548339844,54.49700164794922 -184.19500732421875,48.3390007019043 -184.19500732421875,40.74300003051758 C-184.19500732421875,33.14699935913086 -178.03599548339844,26.98900032043457 -170.44000244140625,26.98900032043457 C-162.843994140625,26.98900032043457 -156.68600463867188,33.14699935913086 -156.68600463867188,40.74300003051758z"></path></g><g opacity="1" transform="matrix(1,0,0,1,0,0)"><path fill="rgb(255,255,255)" fill-opacity="1" d=" M-164.12100219726562,40.74300003051758 C-164.12100219726562,44.233001708984375 -166.9499969482422,47.0620002746582 -170.44000244140625,47.0620002746582 C-173.92999267578125,47.0620002746582 -176.75999450683594,44.233001708984375 -176.75999450683594,40.74300003051758 C-176.75999450683594,37.25299835205078 -173.92999267578125,34.42399978637695 -170.44000244140625,34.42399978637695 C-166.9499969482422,34.42399978637695 -164.12100219726562,37.25299835205078 -164.12100219726562,40.74300003051758z"></path><path stroke-linecap="round" stroke-linejoin="round" fill-opacity="0" stroke="rgb(0,0,0)" stroke-opacity="1" stroke-width="2" d=" M-164.12100219726562,40.74300003051758 C-164.12100219726562,44.233001708984375 -166.9499969482422,47.0620002746582 -170.44000244140625,47.0620002746582 C-173.92999267578125,47.0620002746582 -176.75999450683594,44.233001708984375 -176.75999450683594,40.74300003051758 C-176.75999450683594,37.25299835205078 -173.92999267578125,34.42399978637695 -170.44000244140625,34.42399978637695 C-166.9499969482422,34.42399978637695 -164.12100219726562,37.25299835205078 -164.12100219726562,40.74300003051758z"></path></g><g opacity="1" transform="matrix(1,0,0,1,0,0)"><path fill="rgb(255,255,255)" fill-opacity="1" d=" M1.3739999532699585,51.88800048828125 C1.3739999532699585,51.88800048828125 1.3739999532699585,143.2169952392578 1.3739999532699585,143.2169952392578"></path><path stroke-linecap="round" stroke-linejoin="round" fill-opacity="0" stroke="rgb(0,0,0)" stroke-opacity="1" stroke-width="2" d=" M1.3739999532699585,51.88800048828125 C1.3739999532699585,51.88800048828125 1.3739999532699585,143.2169952392578 1.3739999532699585,143.2169952392578"></path></g><g opacity="1" transform="matrix(1,0,0,1,0,0)"><path fill="rgb(255,255,255)" fill-opacity="1" d=" M34.702999114990234,143.2169952392578 C34.702999114990234,143.2169952392578 1.63100004196167,50.777000427246094 1.63100004196167,50.777000427246094"></path><path stroke-linecap="round" stroke-linejoin="round" fill-opacity="0" stroke="rgb(0,0,0)" stroke-opacity="1" stroke-width="2" d=" M34.702999114990234,143.2169952392578 C34.702999114990234,143.2169952392578 1.63100004196167,50.777000427246094 1.63100004196167,50.777000427246094"></path></g><g opacity="1" transform="matrix(1,0,0,1,0,0)"><path fill="rgb(255,255,255)" fill-opacity="1" d=" M1.7089999914169312,50.777000427246094 C1.7089999914169312,50.777000427246094 -32.20500183105469,143.2169952392578 -32.20500183105469,143.2169952392578"></path><path stroke-linecap="round" stroke-linejoin="round" fill-opacity="0" stroke="rgb(0,0,0)" stroke-opacity="1" stroke-width="2" d=" M1.7089999914169312,50.777000427246094 C1.7089999914169312,50.777000427246094 -32.20500183105469,143.2169952392578 -32.20500183105469,143.2169952392578"></path></g><g opacity="1" transform="matrix(1,0,0,1,0,0)"><path stroke-linecap="round" stroke-linejoin="round" fill-opacity="0" stroke="rgb(0,0,0)" stroke-opacity="1" stroke-width="2" d=" M-47.57899856567383,143.2169952392578 C-46.27199935913086,168.7949981689453 -25.118999481201172,189.13299560546875 0.7839999794960022,189.13299560546875 C26.687000274658203,189.13299560546875 47.8390007019043,168.7949981689453 49.145999908447266,143.2169952392578 C49.145999908447266,143.2169952392578 -47.57899856567383,143.2169952392578 -47.57899856567383,143.2169952392578z"></path></g><g opacity="1" transform="matrix(1,0,0,1,0,0)"><path fill="rgb(255,255,255)" fill-opacity="1" d=" M-171.3979949951172,51.88800048828125 C-171.3979949951172,51.88800048828125 -171.3979949951172,143.2169952392578 -171.3979949951172,143.2169952392578"></path><path stroke-linecap="round" stroke-linejoin="round" fill-opacity="0" stroke="rgb(0,0,0)" stroke-opacity="1" stroke-width="2" d=" M-171.3979949951172,51.88800048828125 C-171.3979949951172,51.88800048828125 -171.3979949951172,143.2169952392578 -171.3979949951172,143.2169952392578"></path></g><g opacity="1" transform="matrix(1,0,0,1,0,0)"><path fill="rgb(255,255,255)" fill-opacity="1" d=" M-138.0679931640625,143.2169952392578 C-138.0679931640625,143.2169952392578 -171.13999938964844,50.777000427246094 -171.13999938964844,50.777000427246094"></path><path stroke-linecap="round" stroke-linejoin="round" fill-opacity="0" stroke="rgb(0,0,0)" stroke-opacity="1" stroke-width="2" d=" M-138.0679931640625,143.2169952392578 C-138.0679931640625,143.2169952392578 -171.13999938964844,50.777000427246094 -171.13999938964844,50.777000427246094"></path></g><g opacity="1" transform="matrix(1,0,0,1,0,0)"><path fill="rgb(255,255,255)" fill-opacity="1" d=" M-171.06199645996094,50.777000427246094 C-171.06199645996094,50.777000427246094 -204.9759979248047,143.2169952392578 -204.9759979248047,143.2169952392578"></path><path stroke-linecap="round" stroke-linejoin="round" fill-opacity="0" stroke="rgb(0,0,0)" stroke-opacity="1" stroke-width="2" d=" M-171.06199645996094,50.777000427246094 C-171.06199645996094,50.777000427246094 -204.9759979248047,143.2169952392578 -204.9759979248047,143.2169952392578"></path></g><g opacity="1" transform="matrix(1,0,0,1,0,0)"><path stroke-linecap="round" stroke-linejoin="round" fill-opacity="0" stroke="rgb(0,0,0)" stroke-opacity="1" stroke-width="2" d=" M-220.35000610351562,143.2169952392578 C-219.04299926757812,168.7949981689453 -197.88999938964844,189.13299560546875 -171.98699951171875,189.13299560546875 C-146.08399963378906,189.13299560546875 -124.93199920654297,168.7949981689453 -123.625,143.2169952392578 C-123.625,143.2169952392578 -220.35000610351562,143.2169952392578 -220.35000610351562,143.2169952392578z"></path></g></g><g transform="matrix(1,0,0,1,256,256)" opacity="1" style="display: block;"><g opacity="1" transform="matrix(1,0,0,1,0,0)"><path fill="rgb(255,255,255)" fill-opacity="1" d=" M78.3270034790039,-36.71799850463867 C89.27999877929688,-41.441001892089844 101.39800262451172,-43.176998138427734 105.92900085449219,-43.731998443603516 C119.37200164794922,-45.380001068115234 136.55299377441406,-45.47800064086914 152.95700073242188,-42.983001708984375 C152.95700073242188,-42.983001708984375 152.96499633789062,-42.983001708984375 152.98300170898438,-42.9739990234375 C159.16200256347656,-42.02199935913086 165.23599243164062,-40.70800018310547 170.95700073242188,-38.97200012207031 C180.23899841308594,-36.1510009765625 188.60400390625,-32.21099853515625 195.00399780273438,-26.90399932861328 C210.7030029296875,-13.87600040435791 189.0709991455078,90.21900177001953 189.2830047607422,95.2959976196289 C189.29200744628906,95.44599914550781 189.29200744628906,95.62200164794922 189.2830047607422,95.82499694824219 C189.26499938964844,97.61399841308594 189.0449981689453,101.5989990234375 191.0019989013672,106.5 C191.78700256347656,108.46600341796875 192.55299377441406,110.4749984741211 193.29400634765625,112.53800201416016 C200.5399932861328,132.7239990234375 205.23699951171875,200.60499572753906 200.7239990234375,234.61300659179688 C200.7239990234375,234.61300659179688 58.39099884033203,234.61300659179688 58.39099884033203,234.61300659179688 C58.39099884033203,234.61300659179688 70.84600067138672,147.4709930419922 76.53199768066406,119.04299926757812 C77.06099700927734,116.37200164794922 77.53700256347656,113.85099792480469 77.93399810791016,111.52400207519531 C78.5770034790039,107.69000244140625 79.0270004272461,104.05799865722656 79.2030029296875,100.7699966430664 C79.30899810791016,98.8219985961914 79.31800079345703,96.98799896240234 79.21199798583984,95.2959976196289 C79.10600280761719,93.54199981689453 78.8759994506836,91.93800354003906 78.51499938964844,90.53600311279297 C73.00599670410156,69.36299896240234 62.64799880981445,69.13600158691406 59.44900131225586,49.65299987792969 C57.15299987792969,35.66999816894531 71.6500015258789,21.084999084472656 71.6500015258789,21.084999084472656 C71.6500015258789,21.084999084472656 72.89900207519531,0.6800000071525574 74.57599639892578,-10.092000007629395"></path></g><g opacity="1" transform="matrix(1,0,0,1,0,0)"><path fill="rgb(253,196,35)" fill-opacity="1" d=" M193.29400634765625,112.53800201416016 C161.552001953125,121.75 97.60800170898438,119.94200134277344 76.53199768066406,119.04299926757812 C77.06099700927734,116.37200164794922 77.53700256347656,113.85099792480469 77.93399810791016,111.52400207519531 C78.5770034790039,107.69000244140625 79.0270004272461,104.05799865722656 79.2030029296875,100.7699966430664 C115.81099700927734,105.13300323486328 173.96299743652344,97.90499877929688 189.2830047607422,95.82499694824219 C189.26499938964844,97.61399841308594 189.0449981689453,101.5989990234375 191.0019989013672,106.5 C191.78700256347656,108.46600341796875 192.55299377441406,110.4749984741211 193.29400634765625,112.53800201416016z"></path></g><g opacity="1" transform="matrix(1,0,0,1,0,0)"><path stroke-linecap="round" stroke-linejoin="round" fill-opacity="0" stroke="rgb(0,0,0)" stroke-opacity="1" stroke-width="2" d=" M78.3270034790039,-36.71799850463867 C89.27999877929688,-41.441001892089844 101.39800262451172,-43.176998138427734 105.92900085449219,-43.731998443603516 C119.37200164794922,-45.380001068115234 136.55299377441406,-45.47800064086914 152.95700073242188,-42.983001708984375 C152.95700073242188,-42.983001708984375 152.96499633789062,-42.983001708984375 152.98300170898438,-42.9739990234375 C159.16200256347656,-42.02199935913086 165.23599243164062,-40.70800018310547 170.95700073242188,-38.97200012207031 C180.23899841308594,-36.1510009765625 188.60400390625,-32.21099853515625 195.00399780273438,-26.90399932861328 C210.7030029296875,-13.87600040435791 189.0709991455078,90.21900177001953 189.2830047607422,95.2959976196289 C189.29200744628906,95.44599914550781 189.29200744628906,95.62200164794922 189.2830047607422,95.82499694824219 C189.26499938964844,97.61399841308594 189.0449981689453,101.5989990234375 191.0019989013672,106.5 C191.78700256347656,108.46600341796875 192.51400756835938,110.48999786376953 193.29400634765625,112.53800201416016 C206.46200561523438,147.09100341796875 205.23699951171875,200.60499572753906 200.7239990234375,234.61300659179688 C200.7239990234375,234.61300659179688 58.39099884033203,234.61300659179688 58.39099884033203,234.61300659179688 C58.39099884033203,234.61300659179688 70.84600067138672,147.4709930419922 76.53199768066406,119.04299926757812 C77.06099700927734,116.37200164794922 77.53700256347656,113.85099792480469 77.93399810791016,111.52400207519531 C78.5770034790039,107.69000244140625 79.0270004272461,104.05799865722656 79.2030029296875,100.7699966430664 C79.30899810791016,98.8219985961914 79.31800079345703,96.98799896240234 79.21199798583984,95.2959976196289 C79.10600280761719,93.54199981689453 78.8759994506836,91.93800354003906 78.51499938964844,90.53600311279297 C73.00599670410156,69.36299896240234 62.64799880981445,69.13600158691406 59.44900131225586,49.65299987792969 C57.15299987792969,35.66999816894531 71.6500015258789,21.084999084472656 71.6500015258789,21.084999084472656 C71.6500015258789,21.084999084472656 72.89900207519531,0.6800000071525574 74.57599639892578,-10.092000007629395"></path></g><g opacity="1" transform="matrix(1,0,0,1,0,0)"><path fill="rgb(253,196,35)" fill-opacity="1" d=" M122.0770034790039,-17.20599937438965 C122.0770034790039,-17.20599937438965 124.33000183105469,1.1410000324249268 143.4770050048828,-2.61299991607666 C166.09100341796875,-7.046999931335449 174.177001953125,-29.18199920654297 170.9530029296875,-38.97200012207031 C170.9530029296875,-38.97200012207031 125.56999969482422,-22.326000213623047 125.56999969482422,-22.326000213623047 C125.56999969482422,-22.326000213623047 122.0770034790039,-17.20599937438965 122.0770034790039,-17.20599937438965z"></path><path stroke-linecap="round" stroke-linejoin="round" fill-opacity="0" stroke="rgb(0,0,0)" stroke-opacity="1" stroke-width="2" d=" M122.0770034790039,-17.20599937438965 C122.0770034790039,-17.20599937438965 124.33000183105469,1.1410000324249268 143.4770050048828,-2.61299991607666 C166.09100341796875,-7.046999931335449 174.177001953125,-29.18199920654297 170.9530029296875,-38.97200012207031 C170.9530029296875,-38.97200012207031 125.56999969482422,-22.326000213623047 125.56999969482422,-22.326000213623047 C125.56999969482422,-22.326000213623047 122.0770034790039,-17.20599937438965 122.0770034790039,-17.20599937438965z"></path></g><g opacity="1" transform="matrix(1,0,0,1,0,0)"><path fill="rgb(112,255,204)" fill-opacity="1" d=" M138.61599731445312,110.13099670410156 C138.61599731445312,110.13099670410156 138.61599731445312,110.13099670410156 138.61599731445312,110.13099670410156 C133.79200744628906,111.51000213623047 128.76300048828125,108.71800231933594 127.38400268554688,103.89399719238281 C127.38400268554688,103.89399719238281 116.39700317382812,65.46199798583984 116.39700317382812,65.46199798583984 C115.01799774169922,60.63800048828125 117.81099700927734,55.61000061035156 122.63500213623047,54.23099899291992 C122.63500213623047,54.23099899291992 122.63500213623047,54.23099899291992 122.63500213623047,54.23099899291992 C127.45899963378906,52.85200119018555 132.48699951171875,55.64400100708008 133.86599731445312,60.46799850463867 C133.86599731445312,60.46799850463867 144.85299682617188,98.9000015258789 144.85299682617188,98.9000015258789 C146.23199462890625,103.7239990234375 143.44000244140625,108.75199890136719 138.61599731445312,110.13099670410156z"></path><path stroke-linecap="round" stroke-linejoin="round" fill-opacity="0" stroke="rgb(0,0,0)" stroke-opacity="1" stroke-width="2" d=" M138.61599731445312,110.13099670410156 C138.61599731445312,110.13099670410156 138.61599731445312,110.13099670410156 138.61599731445312,110.13099670410156 C133.79200744628906,111.51000213623047 128.76300048828125,108.71800231933594 127.38400268554688,103.89399719238281 C127.38400268554688,103.89399719238281 116.39700317382812,65.46199798583984 116.39700317382812,65.46199798583984 C115.01799774169922,60.63800048828125 117.81099700927734,55.61000061035156 122.63500213623047,54.23099899291992 C122.63500213623047,54.23099899291992 122.63500213623047,54.23099899291992 122.63500213623047,54.23099899291992 C127.45899963378906,52.85200119018555 132.48699951171875,55.64400100708008 133.86599731445312,60.46799850463867 C133.86599731445312,60.46799850463867 144.85299682617188,98.9000015258789 144.85299682617188,98.9000015258789 C146.23199462890625,103.7239990234375 143.44000244140625,108.75199890136719 138.61599731445312,110.13099670410156z"></path></g><g opacity="1" transform="matrix(1,0,0,1,0,0)"><path fill="rgb(112,255,204)" fill-opacity="1" d=" M68.875,130.06900024414062 C68.875,130.06900024414062 68.8740005493164,130.06900024414062 68.8740005493164,130.06900024414062 C64.05000305175781,131.447998046875 59.02199935913086,128.656005859375 57.643001556396484,123.83200073242188 C57.643001556396484,123.83200073242188 46.65599822998047,85.4000015258789 46.65599822998047,85.4000015258789 C45.277000427246094,80.57599639892578 48.069000244140625,75.5479965209961 52.893001556396484,74.16899871826172 C52.893001556396484,74.16899871826172 52.893001556396484,74.16899871826172 52.893001556396484,74.16899871826172 C57.71699905395508,72.79000091552734 62.74599838256836,75.58200073242188 64.125,80.40599822998047 C64.125,80.40599822998047 75.11199951171875,118.83799743652344 75.11199951171875,118.83799743652344 C76.49099731445312,123.66200256347656 73.6989974975586,128.69000244140625 68.875,130.06900024414062z"></path><path stroke-linecap="round" stroke-linejoin="round" fill-opacity="0" stroke="rgb(0,0,0)" stroke-opacity="1" stroke-width="2" d=" M68.875,130.06900024414062 C68.875,130.06900024414062 68.8740005493164,130.06900024414062 68.8740005493164,130.06900024414062 C64.05000305175781,131.447998046875 59.02199935913086,128.656005859375 57.643001556396484,123.83200073242188 C57.643001556396484,123.83200073242188 46.65599822998047,85.4000015258789 46.65599822998047,85.4000015258789 C45.277000427246094,80.57599639892578 48.069000244140625,75.5479965209961 52.893001556396484,74.16899871826172 C52.893001556396484,74.16899871826172 52.893001556396484,74.16899871826172 52.893001556396484,74.16899871826172 C57.71699905395508,72.79000091552734 62.74599838256836,75.58200073242188 64.125,80.40599822998047 C64.125,80.40599822998047 75.11199951171875,118.83799743652344 75.11199951171875,118.83799743652344 C76.49099731445312,123.66200256347656 73.6989974975586,128.69000244140625 68.875,130.06900024414062z"></path></g><g opacity="1" transform="matrix(1,0,0,1,0,0)"><path fill="rgb(255,255,255)" fill-opacity="1" d=" M127.7300033569336,105.10299682617188 C127.7300033569336,105.10299682617188 75.45800018310547,120.0469970703125 75.45800018310547,120.0469970703125 C75.45800018310547,120.0469970703125 63.77899932861328,79.1969985961914 63.77899932861328,79.1969985961914 C63.77899932861328,79.1969985961914 116.0510025024414,64.25299835205078 116.0510025024414,64.25299835205078 C116.0510025024414,64.25299835205078 127.7300033569336,105.10299682617188 127.7300033569336,105.10299682617188z"></path><path stroke-linecap="round" stroke-linejoin="round" fill-opacity="0" stroke="rgb(0,0,0)" stroke-opacity="1" stroke-width="2" d=" M127.7300033569336,105.10299682617188 C127.7300033569336,105.10299682617188 75.45800018310547,120.0469970703125 75.45800018310547,120.0469970703125 C75.45800018310547,120.0469970703125 63.77899932861328,79.1969985961914 63.77899932861328,79.1969985961914 C63.77899932861328,79.1969985961914 116.0510025024414,64.25299835205078 116.0510025024414,64.25299835205078 C116.0510025024414,64.25299835205078 127.7300033569336,105.10299682617188 127.7300033569336,105.10299682617188z"></path></g><g opacity="1" transform="matrix(1,0,0,1,0,0)"><path fill="rgb(255,255,255)" fill-opacity="1" d=" M139.30799865722656,130.5709991455078 C139.30799865722656,130.5709991455078 115.89700317382812,126.15299987792969 111.51300048828125,131.0570068359375 C107.12899780273438,135.96099853515625 121.76100158691406,141.2050018310547 121.76100158691406,141.2050018310547"></path><path stroke-linecap="round" stroke-linejoin="round" fill-opacity="0" stroke="rgb(0,0,0)" stroke-opacity="1" stroke-width="2" d=" M139.30799865722656,130.5709991455078 C139.30799865722656,130.5709991455078 115.89700317382812,126.15299987792969 111.51300048828125,131.0570068359375 C107.12899780273438,135.96099853515625 121.76100158691406,141.2050018310547 121.76100158691406,141.2050018310547"></path></g><g opacity="1" transform="matrix(1,0,0,1,0,0)"><path fill="rgb(255,255,255)" fill-opacity="1" d=" M126.80500030517578,198.68800354003906 C126.80500030517578,198.68800354003906 126.80500030517578,198.68800354003906 126.80500030517578,198.68800354003906 C122.05500030517578,200.04600524902344 117.1050033569336,197.2969970703125 115.74700164794922,192.5469970703125 C115.74700164794922,192.5469970703125 93.61900329589844,115.14600372314453 93.61900329589844,115.14600372314453 C93.61900329589844,115.14600372314453 110.81900024414062,110.22899627685547 110.81900024414062,110.22899627685547 C110.81900024414062,110.22899627685547 132.94700622558594,187.6300048828125 132.94700622558594,187.6300048828125 C134.30499267578125,192.3800048828125 131.55499267578125,197.3300018310547 126.80500030517578,198.68800354003906z"></path><path stroke-linecap="round" stroke-linejoin="round" fill-opacity="0" stroke="rgb(0,0,0)" stroke-opacity="1" stroke-width="2" d=" M126.80500030517578,198.68800354003906 C126.80500030517578,198.68800354003906 126.80500030517578,198.68800354003906 126.80500030517578,198.68800354003906 C122.05500030517578,200.04600524902344 117.1050033569336,197.2969970703125 115.74700164794922,192.5469970703125 C115.74700164794922,192.5469970703125 93.61900329589844,115.14600372314453 93.61900329589844,115.14600372314453 C93.61900329589844,115.14600372314453 110.81900024414062,110.22899627685547 110.81900024414062,110.22899627685547 C110.81900024414062,110.22899627685547 132.94700622558594,187.6300048828125 132.94700622558594,187.6300048828125 C134.30499267578125,192.3800048828125 131.55499267578125,197.3300018310547 126.80500030517578,198.68800354003906z"></path></g><g opacity="1" transform="matrix(1,0,0,1,0,0)"><path fill="rgb(0,0,0)" fill-opacity="1" d=" M116.84700012207031,108.21499633789062 C116.84700012207031,108.21499633789062 118.6240005493164,114.42900085449219 118.6240005493164,114.42900085449219 C119.36699676513672,117.0260009765625 117.86100006103516,119.73699951171875 115.26399993896484,120.4800033569336 C115.26399993896484,120.4800033569336 94.16899871826172,126.51000213623047 94.16899871826172,126.51000213623047 C91.5719985961914,127.25299835205078 88.86199951171875,125.74700164794922 88.11900329589844,123.1500015258789 C88.11900329589844,123.1500015258789 86.34200286865234,116.93599700927734 86.34200286865234,116.93599700927734 C86.34200286865234,116.93599700927734 116.84700012207031,108.21499633789062 116.84700012207031,108.21499633789062z"></path><path stroke-linecap="round" stroke-linejoin="round" fill-opacity="0" stroke="rgb(0,0,0)" stroke-opacity="1" stroke-width="2" d=" M116.84700012207031,108.21499633789062 C116.84700012207031,108.21499633789062 118.6240005493164,114.42900085449219 118.6240005493164,114.42900085449219 C119.36699676513672,117.0260009765625 117.86100006103516,119.73699951171875 115.26399993896484,120.4800033569336 C115.26399993896484,120.4800033569336 94.16899871826172,126.51000213623047 94.16899871826172,126.51000213623047 C91.5719985961914,127.25299835205078 88.86199951171875,125.74700164794922 88.11900329589844,123.1500015258789 C88.11900329589844,123.1500015258789 86.34200286865234,116.93599700927734 86.34200286865234,116.93599700927734 C86.34200286865234,116.93599700927734 116.84700012207031,108.21499633789062 116.84700012207031,108.21499633789062z"></path></g><g opacity="1" transform="matrix(1,0,0,1,0,0)"><path fill="rgb(255,255,255)" fill-opacity="1" d=" M121.76100158691406,141.2050018310547 C121.76100158691406,141.2050018310547 93.8550033569336,146.70399475097656 93.58100128173828,151.53399658203125 C93.30699920654297,156.36399841308594 109.48600006103516,153.2030029296875 109.48600006103516,153.2030029296875 C109.48600006103516,153.2030029296875 96.88500213623047,159.40899658203125 95.8489990234375,162.7760009765625 C94.81300354003906,166.14300537109375 98.53900146484375,167.66700744628906 101.31900024414062,166.8800048828125 C101.31900024414062,166.8800048828125 97.89900207519531,173.4199981689453 105.31800079345703,173.4709930419922 C105.31800079345703,173.4709930419922 103.42900085449219,178.1199951171875 110.11299896240234,177.71299743652344 C116.7969970703125,177.30599975585938 129.5290069580078,172.41200256347656 133.61399841308594,170.17100524902344 C143.18299865722656,164.92100524902344 150.5749969482422,156.9530029296875 150.5749969482422,156.9530029296875 C150.66600036621094,148.7100067138672 148.38999938964844,134.677001953125 139.30799865722656,130.5709991455078"></path><path stroke-linecap="round" stroke-linejoin="round" fill-opacity="0" stroke="rgb(0,0,0)" stroke-opacity="1" stroke-width="2" d=" M121.76100158691406,141.2050018310547 C121.76100158691406,141.2050018310547 93.8550033569336,146.70399475097656 93.58100128173828,151.53399658203125 C93.30699920654297,156.36399841308594 109.48600006103516,153.2030029296875 109.48600006103516,153.2030029296875 C109.48600006103516,153.2030029296875 96.88500213623047,159.40899658203125 95.8489990234375,162.7760009765625 C94.81300354003906,166.14300537109375 98.53900146484375,167.66700744628906 101.31900024414062,166.8800048828125 C101.31900024414062,166.8800048828125 97.89900207519531,173.4199981689453 105.31800079345703,173.4709930419922 C105.31800079345703,173.4709930419922 103.42900085449219,178.1199951171875 110.11299896240234,177.71299743652344 C116.7969970703125,177.30599975585938 129.5290069580078,172.41200256347656 133.61399841308594,170.17100524902344 C143.18299865722656,164.92100524902344 150.5749969482422,156.9530029296875 150.5749969482422,156.9530029296875 C150.66600036621094,148.7100067138672 148.38999938964844,134.677001953125 139.30799865722656,130.5709991455078"></path></g><g opacity="1" transform="matrix(1,0,0,1,0,0)"><path stroke-linecap="round" stroke-linejoin="round" fill-opacity="0" stroke="rgb(0,0,0)" stroke-opacity="1" stroke-width="2" d=" M101.31900024414062,166.8800048828125 C101.31900024414062,166.8800048828125 113.23600006103516,161.0709991455078 113.23600006103516,161.0709991455078"></path></g><g opacity="1" transform="matrix(1,0,0,1,0,0)"><path stroke-linecap="round" stroke-linejoin="round" fill-opacity="0" stroke="rgb(0,0,0)" stroke-opacity="1" stroke-width="2" d=" M105.31800079345703,173.4709930419922 C105.31800079345703,173.4709930419922 117.14299774169922,167.3159942626953 117.14299774169922,167.3159942626953"></path></g><g opacity="1" transform="matrix(1,0,0,1,0,0)"><path fill="rgb(255,255,255)" fill-opacity="1" d=" M183.03700256347656,-34.37099838256836 C183.03700256347656,-34.37099838256836 209.1580047607422,-25.191999435424805 222.50100708007812,-2.1059999465942383 C232.73500061035156,15.60099983215332 254.572998046875,80.1989974975586 244.6790008544922,107.9010009765625 C236.1269989013672,131.8459930419922 157.22300720214844,162.0659942626953 157.22300720214844,162.0659942626953 C146.58099365234375,167.82899475097656 127.80999755859375,129.02099609375 138.45199584960938,123.25800323486328 C138.45199584960938,123.25800323486328 199.625,86.22200012207031 199.625,86.22200012207031 C199.625,86.22200012207031 179.66099548339844,26.382999420166016 178.0570068359375,11.642999649047852"></path><path stroke-linecap="round" stroke-linejoin="round" fill-opacity="0" stroke="rgb(0,0,0)" stroke-opacity="1" stroke-width="2" d=" M183.03700256347656,-34.37099838256836 C183.03700256347656,-34.37099838256836 209.1580047607422,-25.191999435424805 222.50100708007812,-2.1059999465942383 C232.73500061035156,15.60099983215332 254.572998046875,80.1989974975586 244.6790008544922,107.9010009765625 C236.1269989013672,131.8459930419922 157.22300720214844,162.0659942626953 157.22300720214844,162.0659942626953 C146.58099365234375,167.82899475097656 127.80999755859375,129.02099609375 138.45199584960938,123.25800323486328 C138.45199584960938,123.25800323486328 199.625,86.22200012207031 199.625,86.22200012207031 C199.625,86.22200012207031 179.66099548339844,26.382999420166016 178.0570068359375,11.642999649047852"></path></g><g opacity="1" transform="matrix(1,0,0,1,0,0)"><path fill="rgb(253,196,35)" fill-opacity="1" d=" M121.5790023803711,-17.2549991607666 C121.5790023803711,-17.2549991607666 113.44200134277344,-0.2930000126361847 98.91200256347656,-6.433000087738037 C84.38200378417969,-12.572999954223633 90.26000213623047,-36.95000076293945 93.79399871826172,-41.57699966430664 C93.79399871826172,-41.57699966430664 115.13300323486328,-24.784000396728516 115.13300323486328,-24.784000396728516 C115.13300323486328,-24.784000396728516 121.5790023803711,-17.2549991607666 121.5790023803711,-17.2549991607666z"></path><path stroke-linecap="round" stroke-linejoin="round" fill-opacity="0" stroke="rgb(0,0,0)" stroke-opacity="1" stroke-width="2" d=" M121.5790023803711,-17.2549991607666 C121.5790023803711,-17.2549991607666 113.44200134277344,-0.2930000126361847 98.91200256347656,-6.433000087738037 C84.38200378417969,-12.572999954223633 90.26000213623047,-36.95000076293945 93.79399871826172,-41.57699966430664 C93.79399871826172,-41.57699966430664 115.13300323486328,-24.784000396728516 115.13300323486328,-24.784000396728516 C115.13300323486328,-24.784000396728516 121.5790023803711,-17.2549991607666 121.5790023803711,-17.2549991607666z"></path></g><g opacity="1" transform="matrix(1,0,0,1,0,0)"><path fill="rgb(255,255,255)" fill-opacity="1" d=" M171.00100708007812,-38.12300109863281 C171.00100708007812,-28.680999755859375 143.6820068359375,-14.892000198364258 121.5790023803711,-17.2549991607666 C90.28299713134766,-20.60099983215332 93.79399871826172,-41.57699966430664 93.79399871826172,-41.57699966430664 C97.2969970703125,-42.44300079345703 101.4010009765625,-43.17300033569336 105.93000030517578,-43.73400115966797 C112.35900115966797,-48.61600112915039 109.38400268554688,-74.36900329589844 107.14800262451172,-79.97200012207031 C104.79900360107422,-85.87100219726562 140.03599548339844,-94.49700164794922 140.03599548339844,-94.49700164794922 C140.03599548339844,-94.49700164794922 138.2969970703125,-50.9640007019043 152.95799255371094,-42.97999954223633 C152.95799255371094,-42.97999954223633 152.96600341796875,-42.97999954223633 152.98199462890625,-42.97200012207031 C159.16200256347656,-42.0260009765625 165.23800659179688,-40.71099853515625 170.9530029296875,-38.97200012207031 C170.98500061035156,-38.691001892089844 171.00100708007812,-38.40399932861328 171.00100708007812,-38.12300109863281z"></path><path stroke-linecap="round" stroke-linejoin="round" fill-opacity="0" stroke="rgb(0,0,0)" stroke-opacity="1" stroke-width="2" d=" M171.00100708007812,-38.12300109863281 C171.00100708007812,-28.680999755859375 143.6820068359375,-14.892000198364258 121.5790023803711,-17.2549991607666 C90.28299713134766,-20.60099983215332 93.79399871826172,-41.57699966430664 93.79399871826172,-41.57699966430664 C97.2969970703125,-42.44300079345703 101.4010009765625,-43.17300033569336 105.93000030517578,-43.73400115966797 C112.35900115966797,-48.61600112915039 109.38400268554688,-74.36900329589844 107.14800262451172,-79.97200012207031 C104.79900360107422,-85.87100219726562 140.03599548339844,-94.49700164794922 140.03599548339844,-94.49700164794922 C140.03599548339844,-94.49700164794922 138.2969970703125,-50.9640007019043 152.95799255371094,-42.97999954223633 C152.95799255371094,-42.97999954223633 152.96600341796875,-42.97999954223633 152.98199462890625,-42.97200012207031 C159.16200256347656,-42.0260009765625 165.23800659179688,-40.71099853515625 170.9530029296875,-38.97200012207031 C170.98500061035156,-38.691001892089844 171.00100708007812,-38.40399932861328 171.00100708007812,-38.12300109863281z"></path></g><g opacity="1" transform="matrix(1,0,0,1,0,0)"><path fill="rgb(255,255,255)" fill-opacity="1" d=" M136.72999572753906,-103.71199798583984 C136.72999572753906,-103.71199798583984 146.43299865722656,-113.28399658203125 149.7530059814453,-102.73699951171875 C153.63099670410156,-90.41799926757812 140.99200439453125,-87.33499908447266 140.99200439453125,-87.33499908447266 C140.99200439453125,-87.33499908447266 124.62300109863281,-46.72800064086914 94.24500274658203,-65.66600036621094 C79.01100158691406,-75.16300201416016 73.08699798583984,-128.51600646972656 97.2699966430664,-140.9720001220703 C114.51200103759766,-149.85299682617188 129.45599365234375,-135.80499267578125 132.80799865722656,-123.8759994506836 C135.32899475097656,-114.90599822998047 136.72999572753906,-103.71199798583984 136.72999572753906,-103.71199798583984z"></path><path stroke-linecap="round" stroke-linejoin="round" fill-opacity="0" stroke="rgb(0,0,0)" stroke-opacity="1" stroke-width="2" d=" M136.72999572753906,-103.71199798583984 C136.72999572753906,-103.71199798583984 146.43299865722656,-113.28399658203125 149.7530059814453,-102.73699951171875 C153.63099670410156,-90.41799926757812 140.99200439453125,-87.33499908447266 140.99200439453125,-87.33499908447266 C140.99200439453125,-87.33499908447266 124.62300109863281,-46.72800064086914 94.24500274658203,-65.66600036621094 C79.01100158691406,-75.16300201416016 73.08699798583984,-128.51600646972656 97.2699966430664,-140.9720001220703 C114.51200103759766,-149.85299682617188 129.45599365234375,-135.80499267578125 132.80799865722656,-123.8759994506836 C135.32899475097656,-114.90599822998047 136.72999572753906,-103.71199798583984 136.72999572753906,-103.71199798583984z"></path></g><g opacity="1" transform="matrix(1,0,0,1,0,0)"><path fill="rgb(0,0,0)" fill-opacity="1" d=" M136.72999572753906,-103.71199798583984 C136.72999572753906,-103.71199798583984 136.89599609375,-101.12100219726562 134.14500427246094,-103.77100372314453 C131.3939971923828,-106.4209976196289 128.72300720214844,-127.17500305175781 128.72300720214844,-127.17500305175781 C128.72300720214844,-127.17500305175781 111.97599792480469,-142.29200744628906 103.6729965209961,-138.2100067138672 C95.37000274658203,-134.1280059814453 80.31199645996094,-129.75 78.58699798583984,-137.88699340820312 C76.86199951171875,-146.0240020751953 118.30599975585938,-158.34100341796875 133.927001953125,-148.0850067138672 C149.54800415039062,-137.82899475097656 136.72999572753906,-103.71199798583984 136.72999572753906,-103.71199798583984z"></path><path stroke-linecap="round" stroke-linejoin="round" fill-opacity="0" stroke="rgb(0,0,0)" stroke-opacity="1" stroke-width="2" d=" M136.72999572753906,-103.71199798583984 C136.72999572753906,-103.71199798583984 136.89599609375,-101.12100219726562 134.14500427246094,-103.77100372314453 C131.3939971923828,-106.4209976196289 128.72300720214844,-127.17500305175781 128.72300720214844,-127.17500305175781 C128.72300720214844,-127.17500305175781 111.97599792480469,-142.29200744628906 103.6729965209961,-138.2100067138672 C95.37000274658203,-134.1280059814453 80.31199645996094,-129.75 78.58699798583984,-137.88699340820312 C76.86199951171875,-146.0240020751953 118.30599975585938,-158.34100341796875 133.927001953125,-148.0850067138672 C149.54800415039062,-137.82899475097656 136.72999572753906,-103.71199798583984 136.72999572753906,-103.71199798583984z"></path></g><g opacity="1" transform="matrix(1,0,0,1,0,0)"><path stroke-linecap="butt" stroke-linejoin="miter" fill-opacity="0" stroke-miterlimit="10" stroke="rgb(255,255,255)" stroke-opacity="1" stroke-width="2" d=" M71.07599639892578,-141.28199768066406 C66.51899719238281,-139.13999938964844 63.638999938964844,-133.89199829101562 64.27999877929688,-128.8979949951172"></path></g><g opacity="1" transform="matrix(1,0,0,1,0,0)"><path stroke-linecap="butt" stroke-linejoin="miter" fill-opacity="0" stroke-miterlimit="10" stroke="rgb(255,255,255)" stroke-opacity="1" stroke-width="2" d=" M60.90399932861328,-77.95099639892578 C58.54399871826172,-75.19000244140625 57.441001892089844,-71.3949966430664 57.95199966430664,-67.79900360107422 C58.4630012512207,-64.2030029296875 60.58000183105469,-60.8650016784668 63.61600112915039,-58.87099838256836"></path></g><g opacity="1" transform="matrix(1,0,0,1,0,0)"><path stroke-linecap="butt" stroke-linejoin="miter" fill-opacity="0" stroke-miterlimit="10" stroke="rgb(255,255,255)" stroke-opacity="1" stroke-width="2" d=" M222.99400329589844,-60.86899948120117 C225.3040008544922,-55.10200119018555 227.26800537109375,-48.95000076293945 226.57000732421875,-42.777000427246094 C225.8719940185547,-36.604000091552734 221.86599731445312,-30.426000595092773 215.8260040283203,-28.972000122070312"></path></g><g opacity="1" transform="matrix(1,0,0,1,0,0)"><path stroke-linecap="butt" stroke-linejoin="miter" fill-opacity="0" stroke-miterlimit="10" stroke="rgb(255,255,255)" stroke-opacity="1" stroke-width="2" d=" M194.19000244140625,-115.57599639892578 C195.50399780273438,-113.00299835205078 196.8280029296875,-110.40599822998047 197.5749969482422,-107.61499786376953 C198.32200622558594,-104.8239974975586 198.45899963378906,-101.78700256347656 197.41299438476562,-99.09400177001953 C195.70799255371094,-94.70099639892578 190.68699645996094,-91.86900329589844 186.04600524902344,-92.68299865722656"></path></g><g opacity="1" transform="matrix(1,0,0,1,0,0)"><path fill="rgb(255,255,255)" fill-opacity="1" d=" M110.65699768066406,-118.56099700927734 C110.65699768066406,-118.56099700927734 115.55999755859375,-121.10900115966797 120.63700103759766,-115.90599822998047"></path><path stroke-linecap="round" stroke-linejoin="round" fill-opacity="0" stroke="rgb(0,0,0)" stroke-opacity="1" stroke-width="2" d=" M110.65699768066406,-118.56099700927734 C110.65699768066406,-118.56099700927734 115.55999755859375,-121.10900115966797 120.63700103759766,-115.90599822998047"></path></g><g opacity="1" transform="matrix(1,0,0,1,0,0)"><path fill="rgb(255,255,255)" fill-opacity="1" d=" M90.80999755859375,-120.96600341796875 C90.80999755859375,-120.96600341796875 95.71399688720703,-123.51499938964844 100.79100036621094,-118.31199645996094"></path><path stroke-linecap="round" stroke-linejoin="round" fill-opacity="0" stroke="rgb(0,0,0)" stroke-opacity="1" stroke-width="2" d=" M90.80999755859375,-120.96600341796875 C90.80999755859375,-120.96600341796875 95.71399688720703,-123.51499938964844 100.79100036621094,-118.31199645996094"></path></g><g opacity="1" transform="matrix(1,0,0,1,0,0)"><path fill="rgb(255,255,255)" fill-opacity="1" d=" M101.57099914550781,-107.37000274658203 C99.98300170898438,-102.16400146484375 98.39399719238281,-96.95600128173828 96.80599975585938,-91.75 C96.54499816894531,-90.89299774169922 96.27999877929688,-89.99500274658203 96.447998046875,-89.11499786376953 C96.66600036621094,-87.97200012207031 97.59600067138672,-87.06800079345703 98.64900207519531,-86.57499694824219 C99.7020034790039,-86.08200073242188 100.87899780273438,-85.93299865722656 102.03299713134766,-85.79000091552734"></path><path stroke-linecap="round" stroke-linejoin="round" fill-opacity="0" stroke="rgb(0,0,0)" stroke-opacity="1" stroke-width="2" d=" M101.57099914550781,-107.37000274658203 C99.98300170898438,-102.16400146484375 98.39399719238281,-96.95600128173828 96.80599975585938,-91.75 C96.54499816894531,-90.89299774169922 96.27999877929688,-89.99500274658203 96.447998046875,-89.11499786376953 C96.66600036621094,-87.97200012207031 97.59600067138672,-87.06800079345703 98.64900207519531,-86.57499694824219 C99.7020034790039,-86.08200073242188 100.87899780273438,-85.93299865722656 102.03299713134766,-85.79000091552734"></path></g><g opacity="1" transform="matrix(1,0,0,1,0,0)"><path fill="rgb(255,255,255)" fill-opacity="1" d=" M110.90499877929688,-77.80899810791016 C107.35600280761719,-75.55599975585938 102.84500122070312,-74.88200378417969 98.79199981689453,-75.99800109863281"></path><path stroke-linecap="round" stroke-linejoin="round" fill-opacity="0" stroke="rgb(0,0,0)" stroke-opacity="1" stroke-width="2" d=" M110.90499877929688,-77.80899810791016 C107.35600280761719,-75.55599975585938 102.84500122070312,-74.88200378417969 98.79199981689453,-75.99800109863281"></path></g><g opacity="1" transform="matrix(1,0,0,1,0,0)"><path fill="rgb(255,255,255)" fill-opacity="1" d=" M121.5790023803711,-17.2549991607666 C121.5790023803711,-17.2549991607666 116.21099853515625,6.159999847412109 115.56900024414062,38.36199951171875"></path><path stroke-linecap="round" stroke-linejoin="round" fill-opacity="0" stroke="rgb(0,0,0)" stroke-opacity="1" stroke-width="2" d=" M121.5790023803711,-17.2549991607666 C121.5790023803711,-17.2549991607666 116.21099853515625,6.159999847412109 115.56900024414062,38.36199951171875"></path></g><g opacity="1" transform="matrix(1,0,0,1,0,0)"><path stroke-linecap="butt" stroke-linejoin="miter" fill-opacity="0" stroke-miterlimit="10" stroke="rgb(255,255,255)" stroke-opacity="1" stroke-width="2" d=" M155.17599487304688,-162.16200256347656 C158.73599243164062,-162.61099243164062 162.44500732421875,-161.7740020751953 165.4669952392578,-159.83999633789062 C168.48899841308594,-157.906005859375 170.802001953125,-154.88900756835938 171.88600158691406,-151.46800231933594"></path></g><g opacity="1" transform="matrix(1,0,0,1,0,0)"><path stroke-linecap="butt" stroke-linejoin="miter" fill-opacity="0" stroke-miterlimit="10" stroke="rgb(255,255,255)" stroke-opacity="1" stroke-width="2" d=" M206.33599853515625,-128.7550048828125 C210.5590057373047,-126.01399993896484 213.3159942626953,-121.13800048828125 213.48500061035156,-116.10600280761719"></path></g><g opacity="1" transform="matrix(1,0,0,1,0,0)"><path fill="rgb(255,255,255)" fill-opacity="1" d=" M97.15299987792969,-53.4109992980957 C97.15299987792969,-53.4109992980957 99.61900329589844,-50.46200180053711 105.84600067138672,-49.9370002746582"></path><path stroke-linecap="round" stroke-linejoin="round" fill-opacity="0" stroke="rgb(0,0,0)" stroke-opacity="1" stroke-width="2" d=" M97.15299987792969,-53.4109992980957 C97.15299987792969,-53.4109992980957 99.61900329589844,-50.46200180053711 105.84600067138672,-49.9370002746582"></path></g></g><g transform="matrix(1,0,0,1,256,256)" opacity="1" style="display: block;"><g opacity="1" transform="matrix(1,0,0,1,0,0)"><path fill="rgb(0,0,0)" fill-opacity="1" d=" M115.39399719238281,-107.73400115966797 C115.19999694824219,-105.77799987792969 113.8280029296875,-104.31300354003906 112.33000183105469,-104.46199798583984 C110.83200073242188,-104.61100006103516 109.7760009765625,-106.31700134277344 109.97000122070312,-108.27300262451172 C110.16400146484375,-110.22899627685547 111.53600311279297,-111.69300079345703 113.03399658203125,-111.54399871826172 C114.53199768066406,-111.3949966430664 115.58799743652344,-109.69000244140625 115.39399719238281,-107.73400115966797z"></path></g><g opacity="1" transform="matrix(1,0,0,1,0,0)"><path fill="rgb(0,0,0)" fill-opacity="1" d=" M97.71499633789062,-111.66200256347656 C97.52100372314453,-109.70600128173828 96.1500015258789,-108.24199676513672 94.6520004272461,-108.39099884033203 C93.15399932861328,-108.54000091552734 92.0979995727539,-110.24500274658203 92.29199981689453,-112.20099639892578 C92.48600006103516,-114.15699768066406 93.85700225830078,-115.62100219726562 95.3550033569336,-115.47200012207031 C96.85299682617188,-115.322998046875 97.90899658203125,-113.61799621582031 97.71499633789062,-111.66200256347656z"></path></g></g><g transform="matrix(1,0,0,1,256,256)" opacity="1" style="display: block;"><g opacity="1" transform="matrix(1,0,0,1,0,0)"><path stroke-linecap="round" stroke-linejoin="round" fill-opacity="0" stroke="rgb(0,0,0)" stroke-opacity="1" stroke-width="2" d=" M-204.2570037841797,234.61300659179688 C-204.2570037841797,234.61300659179688 247.06399536132812,234.61300659179688 247.06399536132812,234.61300659179688"></path></g></g></g></svg>