<svg width="20" height="20" viewBox="0 0 20 20" fill="none" xmlns="http://www.w3.org/2000/svg">
<path d="M17.0835 8.49175H14.6752C12.7002 8.49175 11.0918 6.88341 11.0918 4.90841V2.50008C11.0918 2.04175 10.7168 1.66675 10.2585 1.66675H6.72516C4.1585 1.66675 2.0835 3.33341 2.0835 6.30841V13.6917C2.0835 16.6667 4.1585 18.3334 6.72516 18.3334H13.2752C15.8418 18.3334 17.9168 16.6667 17.9168 13.6917V9.32508C17.9168 8.86675 17.5418 8.49175 17.0835 8.49175ZM10.2335 13.1501L8.56683 14.8167C8.5085 14.8751 8.4335 14.9251 8.3585 14.9501C8.2835 14.9834 8.2085 15.0001 8.12516 15.0001C8.04183 15.0001 7.96683 14.9834 7.89183 14.9501C7.82516 14.9251 7.7585 14.8751 7.7085 14.8251C7.70016 14.8167 7.69183 14.8167 7.69183 14.8084L6.02516 13.1417C5.7835 12.9001 5.7835 12.5001 6.02516 12.2584C6.26683 12.0167 6.66683 12.0167 6.9085 12.2584L7.50016 12.8667V9.37508C7.50016 9.03341 7.7835 8.75008 8.12516 8.75008C8.46683 8.75008 8.75016 9.03341 8.75016 9.37508V12.8667L9.35016 12.2667C9.59183 12.0251 9.99183 12.0251 10.2335 12.2667C10.4752 12.5084 10.4752 12.9084 10.2335 13.1501Z" fill="#292D32"/>
<path d="M14.5251 7.34158C15.3167 7.34991 16.4167 7.34991 17.3584 7.34991C17.8334 7.34991 18.0834 6.79158 17.7501 6.45825C16.5501 5.24991 14.4001 3.07491 13.1667 1.84158C12.8251 1.49991 12.2334 1.73325 12.2334 2.20825V5.11658C12.2334 6.33325 13.2667 7.34158 14.5251 7.34158Z" fill="#292D32"/>
</svg>
