<svg width="35" height="35" viewBox="0 0 35 35" fill="none" xmlns="http://www.w3.org/2000/svg">
<path d="M17.708 14.9074V13.125H14.208C12.3224 13.125 11.3796 13.125 10.7938 13.7108C10.208 14.2966 10.208 15.2394 10.208 17.125V22.25C10.208 24.1356 10.208 25.0784 10.7938 25.6642C11.3796 26.25 12.3224 26.25 14.208 26.25H19.333C21.2186 26.25 22.1614 26.25 22.7472 25.6642C23.333 25.0784 23.333 24.1356 23.333 22.25V16.5278H19.583C18.6991 16.5278 18.2572 16.5278 17.9826 16.2905C17.708 16.0532 17.708 15.6713 17.708 14.9074Z" fill="#7E869E" fill-opacity="0.25"/>
<path d="M19.2089 4.375H13.1253C10.3755 4.375 9.00054 4.375 8.14626 5.22927C7.29199 6.08354 7.29199 7.45847 7.29199 10.2083V24.7917C7.29199 27.5415 7.29199 28.9165 8.14626 29.7707C9.00054 30.625 10.3755 30.625 13.1253 30.625H21.8753C24.6252 30.625 26.0001 30.625 26.8544 29.7707C27.7087 28.9165 27.7087 27.5415 27.7087 24.7917V12.8748C27.7087 12.2787 27.7087 11.9806 27.5976 11.7126C27.4866 11.4446 27.2759 11.2339 26.8544 10.8124L21.2713 5.22927C20.8498 4.80777 20.639 4.59702 20.371 4.48601C20.103 4.375 19.805 4.375 19.2089 4.375Z" stroke="#6B758F" stroke-width="1.2"/>
<path d="M13.125 18.9584L21.875 18.9584" stroke="#6B758F" stroke-width="1.2" stroke-linecap="round"/>
<path d="M13.125 24.7916L18.9583 24.7916" stroke="#6B758F" stroke-width="1.2" stroke-linecap="round"/>
<path d="M18.958 4.375V10.2083C18.958 11.5833 18.958 12.2707 19.3851 12.6979C19.8123 13.125 20.4997 13.125 21.8747 13.125H27.708" stroke="#6B758F" stroke-width="1.2"/>
</svg>
