<svg width="23" height="24" viewBox="0 0 23 24" fill="none" xmlns="http://www.w3.org/2000/svg">
<path d="M12.6562 10.6056H18.8086C18.8521 10.6056 18.8938 10.6229 18.9246 10.6537C18.9554 10.6844 18.9727 10.7262 18.9727 10.7697V19.0314C18.9727 19.7742 18.6776 20.4866 18.1523 21.0119C17.6271 21.5371 16.9147 21.8322 16.1719 21.8322H6.32812C5.58531 21.8322 4.87292 21.5371 4.34767 21.0119C3.82243 20.4866 3.52734 19.7742 3.52734 19.0314V4.9689C3.52734 4.22609 3.82243 3.5137 4.34767 2.98845C4.87292 2.4632 5.58531 2.16812 6.32812 2.16812H10.3711C10.4146 2.16812 10.4563 2.18541 10.4871 2.21617C10.5179 2.24694 10.5352 2.28867 10.5352 2.33218V8.48453C10.5352 9.04707 10.7586 9.58658 11.1564 9.98437C11.5542 10.3821 12.0937 10.6056 12.6562 10.6056ZM7.73437 17.6369H14.7656C14.9552 17.6369 15.137 17.5616 15.2711 17.4275C15.4052 17.2934 15.4805 17.1116 15.4805 16.922C15.4805 16.7324 15.4052 16.5506 15.2711 16.4166C15.137 16.2825 14.9552 16.2072 14.7656 16.2072H7.73437C7.54479 16.2072 7.36296 16.2825 7.2289 16.4166C7.09484 16.5506 7.01953 16.7324 7.01953 16.922C7.01953 17.1116 7.09484 17.2934 7.2289 17.4275C7.36296 17.5616 7.54479 17.6369 7.73437 17.6369ZM7.73437 14.1212H14.7656C14.9552 14.1212 15.137 14.0459 15.2711 13.9119C15.4052 13.7778 15.4805 13.596 15.4805 13.4064C15.4805 13.2168 15.4052 13.035 15.2711 12.9009C15.137 12.7669 14.9552 12.6916 14.7656 12.6916H7.73437C7.54479 12.6916 7.36296 12.7669 7.2289 12.9009C7.09484 13.035 7.01953 13.2168 7.01953 13.4064C7.01953 13.596 7.09484 13.7778 7.2289 13.9119C7.36296 14.0459 7.54479 14.1212 7.73437 14.1212Z" fill="white" stroke="#252B42" stroke-width="0.0234375"/>
<path d="M12.0947 2.72744L18.4144 9.04717L12.0947 2.72744ZM12.0947 2.72744C12.0947 2.72744 12.0947 2.72743 12.0947 2.72743M12.0947 2.72744L12.0947 2.72743M12.0947 2.72743C12.0841 2.71685 12.0705 2.70965 12.0558 2.70674C12.0411 2.70383 12.0258 2.70533 12.0119 2.71107C11.998 2.71681 11.9862 2.72652 11.9778 2.73899C11.9694 2.75145 11.9649 2.76611 11.9648 2.78112V8.48564C11.9648 8.66901 12.0377 8.84487 12.1674 8.97453C12.297 9.1042 12.4729 9.17704 12.6563 9.17704H18.3607C18.3758 9.17698 18.3904 9.17248 18.4029 9.1641C18.4154 9.15573 18.4251 9.14386 18.4308 9.12998C18.4366 9.1161 18.4381 9.10083 18.4351 9.0861C18.4322 9.07138 18.425 9.05784 18.4145 9.04719L12.0947 2.72743Z" fill="white" stroke="#252B42" stroke-width="0.0234375"/>
</svg>
